# xmcd
#
# Track frame offsets: 
#        150
#        18267
#        37083
#        54066
#        71591
#        85545
#        101929
#        120353
#        137239
#        150872
#
# Disc length: 2244 seconds
#
# Revision: 0
# Processed by: cddbd v1.5.2PL0 Copyright (c) Steve Scherf et al.
# Submitted via: ExactAudioCopy v0.95b4
#
DISCID=7208c20a
DTITLE=อัศวิน  สีทอง - อ๊วบ อวบ
DYEAR=2007
DGENRE=Country
TTITLE0=อ๊วบอวบ
TTITLE1=เมียเก่าไม่ไปเมียใหม่จะมา
TTITLE2=อย่าลืมหนังลุงโนราห์
TTITLE3=หน้าแก่แต่ใจอ่อน
TTITLE4=สาวไฮโซ
TTITLE5=พี่หลวงไม่ลวงน้อง
TTITLE6='นเด็กหลอก
TTITLE7=อกหักพักงาน
TTITLE8=บ้านนี้เมียขี้หึง
TTITLE9=ขอนั่งริมใจนาง
EXTD=
EXTT0=
EXTT1=
EXTT2=
EXTT3=
EXTT4=
EXTT5=
EXTT6=
EXTT7=
EXTT8=
EXTT9=
PLAYORDER=
